# xmcd
#
# Track frame offsets:
#	150
#	14373
#	20451
#	34492
#	43362
#	56721
#	76075
#	79841
#	98895
#	102928
#	120310
#	136590
#	144874
#	159622
#	174593
#	189809
#	195015
#	208570
#	211484
#	222895
#	240482
#	259691
#	278064
#	294646
#	301003
#	315060
#	329910
#
# Disc length: 4697 seconds
#
# Revision: 0
# Processed by: cddbd v1.5.2PL0 Copyright (c) Steve Scherf et al.
# Submitted via: dBpowerAMP V4.0
#
DISCID=6d12571b
DTITLE=Mac McAnally - Live in Muscle Shoals
DYEAR=2011
DGENRE=Country Rock
TTITLE0=It's a Crazy World
TTITLE1=New Orleans intro
TTITLE2=Blame it on New Orleans
TTITLE3=Down the Road intro
TTITLE4=Down the Road
TTITLE5=Down By The River
TTITLE6=Dark Ages intro
TTITLE7=Dark Ages
TTITLE8=Pop Top Hop intro
TTITLE9=Pop Top Hop
TTITLE10=Miracle
TTITLE11=Cafe' on the Corner intro
TTITLE12=Cafe' on the Corner
TTITLE13=Opinion on Love intro
TTITLE14=Opinion on Love
TTITLE15=All These Years intro
TTITLE16=All These Years
TTITLE17=This Time intro
TTITLE18=This Time
TTITLE19=Bound to Get Down
TTITLE20=Little Blue Pill
TTITLE21=On Account of You
TTITLE22=Last Man Standing
TTITLE23=Back Where I Come From intro
TTITLE24=Back Where I Come From
TTITLE25=It's My Job
TTITLE26=I heard It Through The Grapevine
EXTD=
EXTT0=
EXTT1=
EXTT2=
EXTT3=
EXTT4=
EXTT5=
EXTT6=
EXTT7=
EXTT8=
EXTT9=
EXTT10=
EXTT11=
EXTT12=
EXTT13=
EXTT14=
EXTT15=
EXTT16=
EXTT17=
EXTT18=
EXTT19=
EXTT20=
EXTT21=
EXTT22=
EXTT23=
EXTT24=
EXTT25=
EXTT26=
PLAYORDER=
